<?xml version="1.0" encoding="UTF-8"?>
<svg version="1.1" xmlns="http://www.w3.org/2000/svg" width="1024" height="1024">
<path d="M0 0 C337.92 0 675.84 0 1024 0 C1024 337.92 1024 675.84 1024 1024 C686.08 1024 348.16 1024 0 1024 C0 686.08 0 348.16 0 0 Z " fill="#171717" transform="translate(0,0)"/>
<path d="M0 0 C15.1398891 1.91007897 28.75415763 6.49570147 42 14 C42.64984863 14.3614209 43.29969727 14.7228418 43.96923828 15.09521484 C69.6881426 29.49245244 89.29824709 51.0917857 103 77 C103.32492432 77.6089209 103.64984863 78.2178418 103.98461914 78.84521484 C106.65854668 83.99504885 108.6801423 89.26649584 110.5625 94.75 C110.86696045 95.63252441 111.1714209 96.51504883 111.48510742 97.42431641 C113.68166281 103.88073236 115.67350671 110.30214305 117 117 C117.20367188 117.97582031 117.40734375 118.95164062 117.6171875 119.95703125 C124.27159546 157.65015029 115.53417734 199.41849844 94 231 C72.46297696 260.75473477 41.76399887 283.39241642 5 290 C3.35257813 290.30357422 3.35257813 290.30357422 1.671875 290.61328125 C-16.66705398 293.43317933 -35.96770156 293.5031585 -54 289 C-55.21300781 288.75636719 -56.42601562 288.51273438 -57.67578125 288.26171875 C-87.29022655 281.87903442 -113.90235295 264.89381045 -139.11572266 248.83447266 C-184.09677994 218.20317625 -184.09677994 218.20317625 -236.28076172 212.48779297 C-239.7986019 213.43052214 -243.22309594 214.56410848 -246.64453125 215.80859375 C-249.45412528 216.80617952 -252.06767263 217.51407146 -255 218 C-254.56021222 198.40945358 -244.32704908 180.46863719 -230.8125 166.78515625 C-225.37216269 161.72369957 -219.40798156 157.73493782 -213 154 C-212.22140625 153.5359375 -211.4428125 153.071875 -210.640625 152.59375 C-190.59381826 141.56127918 -163.48362859 142.2368157 -141.953125 148.33203125 C-140.38262346 148.81655812 -138.8148908 149.31014737 -137.25 149.8125 C-135.5314391 150.34696258 -133.81268538 150.88080553 -132.09375 151.4140625 C-130.82144531 151.81286621 -130.82144531 151.81286621 -129.5234375 152.21972656 C-124.94615516 153.63507044 -120.33886279 154.94947997 -115.73144531 156.26293945 C-112.43658337 157.21888186 -109.22200035 158.27597365 -106.02734375 159.51953125 C-102.02235527 161.05193814 -97.99359888 162.07200119 -93.8125 163 C-92.31769721 163.33979483 -90.82290566 163.67963908 -89.328125 164.01953125 C-88.59658203 164.18404785 -87.86503906 164.34856445 -87.11132812 164.51806641 C-85.18990072 164.9566531 -83.27424372 165.42032905 -81.359375 165.88671875 C-74.89039452 167.45797586 -68.65467021 168.69952352 -62 169 C-61.3694873 169.03254883 -60.73897461 169.06509766 -60.08935547 169.09863281 C-35.13612388 170.23417403 -10.36061802 165.05334792 10 150 C10.90878906 149.33484375 11.81757812 148.6696875 12.75390625 147.984375 C28.59636767 135.73345907 41.4316329 116.65661603 44.53125 96.5546875 C46.42751175 80.46233752 46.3932338 64.05418523 40 49 C39.71060547 48.31760254 39.42121094 47.63520508 39.12304688 46.93212891 C34.59989108 36.60617716 28.87596609 26.71387048 20.734375 18.796875 C19 17 19 17 19 15 C18.41863281 14.73832031 17.83726562 14.47664063 17.23828125 14.20703125 C14.8732366 12.93164068 13.16316451 11.50221425 11.1875 9.6875 C8.5533476 7.32022233 5.90738133 5.14778255 3 3.125 C2.01 2.42375 1.02 1.7225 0 1 C0 0.67 0 0.34 0 0 Z " fill="#FEFEFD" transform="translate(628,360)"/>
<path d="M0 0 C0.76135254 0.16177734 1.52270508 0.32355469 2.30712891 0.49023438 C27.96956686 6.1477821 50.75959797 18.39081325 73 32 C75.39677571 33.45327232 77.79616401 34.90221167 80.1953125 36.3515625 C88.6253484 41.45030588 97.04457822 46.56691392 105.4375 51.7265625 C128.68136704 65.95380275 156.31587834 82.38562654 184.65234375 76.203125 C189.26903462 74.82816552 193.71196693 73.17551965 198.125 71.25 C201 70 201 70 204 70 C198.72096432 91.39609159 186.91438766 109.23571447 167.88671875 120.91015625 C139.92415855 136.10088965 108.71365685 130.21900126 79.62484741 121.66766357 C72.23636088 119.47506007 64.86319368 117.23063925 57.51977539 114.89135742 C50.30389492 112.60804168 43.1069889 110.80022472 35.6875 109.3125 C34.66849609 109.10044922 33.64949219 108.88839844 32.59960938 108.66992188 C22.12688586 106.52669828 12.31360658 105.81792019 1.625 105.8125 C0.36171875 105.80025391 -0.9015625 105.78800781 -2.203125 105.77539062 C-9.41506797 105.76414539 -16.00344857 106.26595461 -23 108 C-24.20785156 108.24878906 -25.41570312 108.49757813 -26.66015625 108.75390625 C-52.09540951 114.79879422 -72.20341054 131.5719326 -86.10546875 153.2890625 C-98.70716655 173.884944 -102.03987657 198.09451498 -98 221.8125 C-91.77213915 247.44811327 -77.94114122 267.58663816 -57.53125 283.94140625 C-55.55268162 285.55051973 -53.74842412 287.15115963 -52 289 C-80.26102392 286.69297764 -105.53390691 270.68027056 -126 252 C-127.21042969 250.89591797 -127.21042969 250.89591797 -128.4453125 249.76953125 C-143.37042204 235.49447003 -153.20451958 217.90303024 -161 199 C-161.51820313 197.82824219 -162.03640625 196.65648437 -162.5703125 195.44921875 C-172.32237119 171.92171102 -173.02171226 144.81752817 -169 120 C-168.72542969 118.09927734 -168.72542969 118.09927734 -168.4453125 116.16015625 C-162.55206386 79.74570014 -141.28432707 47.10326075 -112 25 C-79.82178579 1.9849546 -39.11765807 -8.48034245 0 0 Z " fill="#FDFDFD" transform="translate(448,374)"/>
</svg>
